<mxfile host="app.diagrams.net" modified="2023-09-15T16:26:22.218Z" agent="Mozilla/5.0 (Windows NT 10.0; Win64; x64) AppleWebKit/537.36 (KHTML, like Gecko) Chrome/118.0.0.0 Safari/537.36 Edg/118.0.0.0" version="21.7.2" etag="tANygV_NO-0bQ2qNBk4k" type="github">
  <diagram name="第 1 页" id="T8WbNvqm9_tApNMJxvMl">
    <mxGraphModel>
      <root>
        <mxCell id="0" />
        <mxCell id="1" parent="0" />
      </root>
    </mxGraphModel>
  </diagram>
</mxfile>
